# xmcd
#
# Track frame offsets: 
#        150
#        19272
#        33657
#        46683
#        63119
#        81788
#        108326
#        141932
#        165294
#        182025
#        199367
#        215765
#        234781
#        253601
#
# Disc length: 3791 seconds
#
# Revision: 0
# Processed by: cddbd v1.4PL0 Copyright (c) Steve Scherf et al.
# Submitted via: ExactAudioCopy v0.95a3
#
DISCID=b90ecd0e
DTITLE=South Side Slim - Five Steps
DYEAR=1900
DGENRE=Blues
TTITLE0=Just a Thing
TTITLE1=Junkyard Dog
TTITLE2=Woman is My Weakness
TTITLE3=I Was Hooked
TTITLE4=Can't Stop My Drinking
TTITLE5=Take All My Money
TTITLE6=5-Steps
TTITLE7=Let Me Down Easy
TTITLE8=It Was You
TTITLE9=Road House Blues
TTITLE10=Going Fishing
TTITLE11=That's All I Need
TTITLE12=Messed Up
TTITLE13=I Can't Rest
EXTD=
EXTT0=
EXTT1=
EXTT2=
EXTT3=
EXTT4=
EXTT5=
EXTT6=
EXTT7=
EXTT8=
EXTT9=
EXTT10=
EXTT11=
EXTT12=
EXTT13=
PLAYORDER=
